{
  "accessors": [
    {
      "bufferView": 2,
      "componentType": 5126,
      "count": 88,
      "max": [
        104.59157562255859,
        160.318603515625,
        -10.854297637939453
      ],
      "min": [
        -108.92893218994141,
        -4.934326171875,
        -30.257373809814453
      ],
      "type": "VEC3"
    },
    {
      "bufferView": 2,
      "byteOffset": 1056,
      "componentType": 5126,
      "count": 88,
      "max": [
        0.8511921763420105,
        -0.49918732047080994,
        0
      ],
      "min": [
        -0.8511921763420105,
        -1,
        -0.16230705380439758
      ],
      "type": "VEC3"
    },
    {
      "bufferView": 1,
      "componentType": 5126,
      "count": 88,
      "max": [
        0.6145859956741333,
        0.9828450083732605
      ],
      "min": [
        0.38510799407958984,
        0.53323101997375488
      ],
      "type": "VEC2"
    },
    {
      "bufferView": 0,
      "componentType": 5125,
      "count": 204,
      "max": [
        87
      ],
      "min": [
        0
      ],
      "type": "SCALAR"
    },
    {
      "bufferView": 2,
      "byteOffset": 2112,
      "componentType": 5126,
      "count": 2280,
      "max": [
        46.005409240722656,
        187.85368347167969,
        3.3704729080200195
      ],
      "min": [
        -50.524623870849609,
        173.93667602539062,
        -29.372575759887695
      ],
      "type": "VEC3"
    },
    {
      "bufferView": 2,
      "byteOffset": 29472,
      "componentType": 5126,
      "count": 2280,
      "max": [
        0.98195582628250122,
        1,
        0.98195582628250122
      ],
      "min": [
        -0.98195582628250122,
        -1,
        -0.98195582628250122
      ],
      "type": "VEC3"
    },
    {
      "bufferView": 1,
      "byteOffset": 704,
      "componentType": 5126,
      "count": 2280,
      "max": [
        1,
        1
      ],
      "min": [
        0,
        0.033431001007556915
      ],
      "type": "VEC2"
    },
    {
      "bufferView": 0,
      "byteOffset": 816,
      "componentType": 5125,
      "count": 11520,
      "max": [
        2279
      ],
      "min": [
        0
      ],
      "type": "SCALAR"
    },
    {
      "bufferView": 2,
      "byteOffset": 56832,
      "componentType": 5126,
      "count": 1320,
      "max": [
        35.737083435058594,
        10.139892578125,
        -13.049243927001953
      ],
      "min": [
        -40.074440002441406,
        -15.212645530700684,
        -17.701831817626953
      ],
      "type": "VEC3"
    },
    {
      "bufferView": 2,
      "byteOffset": 72672,
      "componentType": 5126,
      "count": 1320,
      "max": [
        0.99914824962615967,
        0.99997603893280029,
        0.99914669990539551
      ],
      "min": [
        -0.99914824962615967,
        -0.99998593330383301,
        -0.99998116493225098
      ],
      "type": "VEC3"
    },
    {
      "bufferView": 1,
      "byteOffset": 18944,
      "componentType": 5126,
      "count": 1320,
      "max": [
        0.53864401578903198,
        0
      ],
      "min": [
        0.46113398671150208,
        0
      ],
      "type": "VEC2"
    },
    {
      "bufferView": 0,
      "byteOffset": 46896,
      "componentType": 5125,
      "count": 4548,
      "max": [
        1319
      ],
      "min": [
        0
      ],
      "type": "SCALAR"
    },
    {
      "bufferView": 2,
      "byteOffset": 88512,
      "componentType": 5126,
      "count": 746,
      "max": [
        142.16238403320312,
        169.084228515625,
        -4.7588391304016113
      ],
      "min": [
        -146.49972534179688,
        32.265380859375,
        -27.813037872314453
      ],
      "type": "VEC3"
    },
    {
      "bufferView": 2,
      "byteOffset": 97464,
      "componentType": 5126,
      "count": 746,
      "max": [
        0.98230266571044922,
        1,
        0.98230266571044922
      ],
      "min": [
        -0.98236137628555298,
        -1,
        -0.99941158294677734
      ],
      "type": "VEC3"
    },
    {
      "bufferView": 1,
      "byteOffset": 29504,
      "componentType": 5126,
      "count": 746,
      "max": [
        0.875,
        0.75
      ],
      "min": [
        0.26895201206207275,
        0.5
      ],
      "type": "VEC2"
    },
    {
      "bufferView": 0,
      "byteOffset": 65088,
      "componentType": 5125,
      "count": 1428,
      "max": [
        745
      ],
      "min": [
        0
      ],
      "type": "SCALAR"
    },
    {
      "bufferView": 2,
      "byteOffset": 106416,
      "componentType": 5126,
      "count": 66,
      "max": [
        45.187110900878906,
        145.70298767089844,
        41.5343017578125
      ],
      "min": [
        -49.524471282958984,
        140.70317077636719,
        -53.177280426025391
      ],
      "type": "VEC3"
    },
    {
      "bufferView": 2,
      "byteOffset": 107208,
      "componentType": 5126,
      "count": 66,
      "max": [
        1,
        -0,
        1
      ],
      "min": [
        -1,
        -0,
        -1
      ],
      "type": "VEC3"
    },
    {
      "bufferView": 1,
      "byteOffset": 35472,
      "componentType": 5126,
      "count": 66,
      "max": [
        1,
        0.81675398349761963
      ],
      "min": [
        0,
        0.68324601650238037
      ],
      "type": "VEC2"
    },
    {
      "bufferView": 0,
      "byteOffset": 70800,
      "componentType": 5125,
      "count": 192,
      "max": [
        65
      ],
      "min": [
        0
      ],
      "type": "SCALAR"
    },
    {
      "bufferView": 2,
      "byteOffset": 108000,
      "componentType": 5126,
      "count": 18,
      "max": [
        18.712181091308594,
        127.614013671875,
        11.583934783935547
      ],
      "min": [
        -23.049537658691406,
        93.347412109375,
        -2.4015390872955322
      ],
      "type": "VEC3"
    },
    {
      "bufferView": 2,
      "byteOffset": 108216,
      "componentType": 5126,
      "count": 18,
      "max": [
        0.81477272510528564,
        -0,
        0.81110626459121704
      ],
      "min": [
        -0.81477272510528564,
        -0.60552185773849487,
        0.57978057861328125
      ],
      "type": "VEC3"
    },
    {
      "bufferView": 1,
      "byteOffset": 36000,
      "componentType": 5126,
      "count": 18,
      "max": [
        0.74653899669647217,
        0.69553899765014648
      ],
      "min": [
        0.65373402833938599,
        0.54666799306869507
      ],
      "type": "VEC2"
    },
    {
      "bufferView": 0,
      "byteOffset": 71568,
      "componentType": 5125,
      "count": 36,
      "max": [
        17
      ],
      "min": [
        0
      ],
      "type": "SCALAR"
    },
    {
      "bufferView": 2,
      "byteOffset": 108432,
      "componentType": 5126,
      "count": 732,
      "max": [
        137.74539184570312,
        172.041259765625,
        24.265453338623047
      ],
      "min": [
        -142.08273315429688,
        -5.1643071174621582,
        -35.398120880126953
      ],
      "type": "VEC3"
    },
    {
      "bufferView": 2,
      "byteOffset": 117216,
      "componentType": 5126,
      "count": 732,
      "max": [
        1,
        1,
        1
      ],
      "min": [
        -1,
        -1,
        -0.99471235275268555
      ],
      "type": "VEC3"
    },
    {
      "bufferView": 1,
      "byteOffset": 36144,
      "componentType": 5126,
      "count": 732,
      "max": [
        0.875,
        0.75
      ],
      "min": [
        0,
        0
      ],
      "type": "VEC2"
    },
    {
      "bufferView": 0,
      "byteOffset": 71712,
      "componentType": 5125,
      "count": 1944,
      "max": [
        731
      ],
      "min": [
        0
      ],
      "type": "SCALAR"
    },
    {
      "bufferView": 2,
      "byteOffset": 126000,
      "componentType": 5126,
      "count": 2720,
      "max": [
        46.153587341308594,
        180.172607421875,
        3.5116689205169678
      ],
      "min": [
        -50.490943908691406,
        54.617919921875,
        -29.472217559814453
      ],
      "type": "VEC3"
    },
    {
      "bufferView": 2,
      "byteOffset": 158640,
      "componentType": 5126,
      "count": 2720,
      "max": [
        0.98273724317550659,
        1,
        0.98273724317550659
      ],
      "min": [
        -0.98273724317550659,
        -0.90509957075119019,
        -0.98273724317550659
      ],
      "type": "VEC3"
    },
    {
      "bufferView": 1,
      "byteOffset": 42000,
      "componentType": 5126,
      "count": 2720,
      "max": [
        0.9629020094871521,
        0.78192597627639771
      ],
      "min": [
        0.40417799353599548,
        0.037098001688718796
      ],
      "type": "VEC2"
    },
    {
      "bufferView": 0,
      "byteOffset": 79488,
      "componentType": 5125,
      "count": 5178,
      "max": [
        2719
      ],
      "min": [
        0
      ],
      "type": "SCALAR"
    },
    {
      "bufferView": 2,
      "byteOffset": 191280,
      "componentType": 5126,
      "count": 13229,
      "max": [
        139.89578247070312,
        180.453857421875,
        24.265453338623047
      ],
      "min": [
        -144.23312377929688,
        -5.1643071174621582,
        -35.583545684814453
      ],
      "type": "VEC3"
    },
    {
      "bufferView": 2,
      "byteOffset": 350028,
      "componentType": 5126,
      "count": 13229,
      "max": [
        1,
        1,
        1
      ],
      "min": [
        -1,
        -1,
        -1
      ],
      "type": "VEC3"
    },
    {
      "bufferView": 1,
      "byteOffset": 63760,
      "componentType": 5126,
      "count": 13229,
      "max": [
        1,
        1
      ],
      "min": [
        0,
        0
      ],
      "type": "VEC2"
    },
    {
      "bufferView": 0,
      "byteOffset": 100200,
      "componentType": 5125,
      "count": 25548,
      "max": [
        13228
      ],
      "min": [
        0
      ],
      "type": "SCALAR"
    },
    {
      "bufferView": 2,
      "byteOffset": 508776,
      "componentType": 5126,
      "count": 1394,
      "max": [
        46.068901062011719,
        149.07273864746094,
        42.416099548339844
      ],
      "min": [
        -50.406265258789062,
        137.33340454101562,
        -54.059078216552734
      ],
      "type": "VEC3"
    },
    {
      "bufferView": 2,
      "byteOffset": 525504,
      "componentType": 5126,
      "count": 1394,
      "max": [
        1,
        0.99986100196838379,
        1
      ],
      "min": [
        -1,
        -0.99986100196838379,
        -1
      ],
      "type": "VEC3"
    },
    {
      "bufferView": 1,
      "byteOffset": 169592,
      "componentType": 5126,
      "count": 1394,
      "max": [
        1,
        1
      ],
      "min": [
        0,
        0.0099999997764825821
      ],
      "type": "VEC2"
    },
    {
      "bufferView": 0,
      "byteOffset": 202392,
      "componentType": 5125,
      "count": 3936,
      "max": [
        1393
      ],
      "min": [
        0
      ],
      "type": "SCALAR"
    },
    {
      "bufferView": 2,
      "byteOffset": 542232,
      "componentType": 5126,
      "count": 126,
      "max": [
        142.16238403320312,
        169.084228515625,
        39.490390777587891
      ],
      "min": [
        -146.49972534179688,
        46.144287109375,
        -51.1334228515625
      ],
      "type": "VEC3"
    },
    {
      "bufferView": 2,
      "byteOffset": 543744,
      "componentType": 5126,
      "count": 126,
      "max": [
        0.99990415573120117,
        0.99969404935836792,
        0.085999593138694763
      ],
      "min": [
        -0.99990415573120117,
        -1,
        -0.99638956785202026
      ],
      "type": "VEC3"
    },
    {
      "bufferView": 1,
      "byteOffset": 180744,
      "componentType": 5126,
      "count": 126,
      "max": [
        0.98054498434066772,
        0.875
      ],
      "min": [
        0.02527100034058094,
        0.019455000758171082
      ],
      "type": "VEC2"
    },
    {
      "bufferView": 0,
      "byteOffset": 218136,
      "componentType": 5125,
      "count": 204,
      "max": [
        125
      ],
      "min": [
        0
      ],
      "type": "SCALAR"
    }
  ],
  "asset": {
    "extras": {
      "author": "Shushanto(PolyCube) (https://sketchfab.com/shushanto)",
      "license": "CC-BY-4.0 (http://creativecommons.org/licenses/by/4.0/)",
      "source": "https://sketchfab.com/3d-models/space-fighter-the-protector-of-the-galaxy-25c7c9c30fb342b691c4f5c8472e12b5",
      "title": "Space Fighter - The protector of the galaxy"
    },
    "generator": "Sketchfab-8.42.0",
    "version": "2.0"
  },
  "bufferViews": [
    {
      "buffer": 0,
      "byteLength": 218952,
      "byteOffset": 0,
      "name": "floatBufferViews",
      "target": 34963
    },
    {
      "buffer": 0,
      "byteLength": 181752,
      "byteOffset": 218952,
      "byteStride": 8,
      "name": "floatBufferViews",
      "target": 34962
    },
    {
      "buffer": 0,
      "byteLength": 545256,
      "byteOffset": 400704,
      "byteStride": 12,
      "name": "floatBufferViews",
      "target": 34962
    }
  ],
  "buffers": [
    {
      "byteLength": 945960,
      "uri": "scene.bin"
    }
  ],
  "materials": [
    {
      "doubleSided": true,
      "emissiveFactor": [
        0,
        0,
        0
      ],
      "name": "Base",
      "pbrMetallicRoughness": {
        "baseColorFactor": [
          0.048172,
          0.048172,
          0.048172,
          1
        ],
        "metallicFactor": 0,
        "roughnessFactor": 0.78451116258024689
      }
    },
    {
      "doubleSided": true,
      "emissiveFactor": [
        0.21635884145515344,
        1,
        1
      ],
      "name": "BaseEmission",
      "pbrMetallicRoughness": {
        "baseColorFactor": [
          0.084571762473331133,
          0.61478400302136349,
          0.78391446528613296,
          1
        ],
        "metallicFactor": 0,
        "roughnessFactor": 0.78803183755802242
      }
    },
    {
      "alphaMode": "BLEND",
      "doubleSided": true,
      "emissiveFactor": [
        1,
        1,
        0.47007300758820902
      ],
      "name": "Booster",
      "pbrMetallicRoughness": {
        "baseColorFactor": [
          0.47230732036261802,
          0.44336727368000811,
          0.056344803429860743,
          0
        ],
        "metallicFactor": 0,
        "roughnessFactor": 0
      }
    },
    {
      "doubleSided": true,
      "emissiveFactor": [
        0,
        0,
        0
      ],
      "name": "BsNdry",
      "pbrMetallicRoughness": {
        "baseColorFactor": [
          0,
          0,
          0,
          1
        ],
        "metallicFactor": 0,
        "roughnessFactor": 0.78451116258024689
      }
    },
    {
      "doubleSided": true,
      "emissiveFactor": [
        0,
        0,
        0
      ],
      "name": "BsNdry.001",
      "pbrMetallicRoughness": {
        "baseColorFactor": [
          0.017388000000000001,
          0.017388000000000001,
          0.017388000000000001,
          1
        ],
        "metallicFactor": 0,
        "roughnessFactor": 0.78451116258024689
      }
    },
    {
      "doubleSided": true,
      "emissiveFactor": [
        1,
        0,
        0
      ],
      "name": "Emission",
      "pbrMetallicRoughness": {
        "baseColorFactor": [
          0.80000000000000004,
          0.80000000000000004,
          0.80000000000000004,
          1
        ],
        "metallicFactor": 0,
        "roughnessFactor": 0.78803183755802242
      }
    },
    {
      "doubleSided": true,
      "emissiveFactor": [
        1,
        1,
        0
      ],
      "name": "Emit",
      "pbrMetallicRoughness": {
        "baseColorFactor": [
          0.80000000000000004,
          0.80000000000000004,
          0.80000000000000004,
          1
        ],
        "metallicFactor": 0,
        "roughnessFactor": 0.78803183755802242
      }
    },
    {
      "doubleSided": true,
      "emissiveFactor": [
        0,
        0,
        0
      ],
      "name": "Glass",
      "pbrMetallicRoughness": {
        "baseColorFactor": [
          0.035092999999999999,
          0.045234999999999997,
          0.046961999999999997,
          1
        ],
        "metallicFactor": 0,
        "roughnessFactor": 0.74028152199706665
      }
    },
    {
      "doubleSided": true,
      "emissiveFactor": [
        0,
        0,
        0
      ],
      "name": "Secandary",
      "pbrMetallicRoughness": {
        "baseColorFactor": [
          1,
          0.0087910000000000002,
          0,
          1
        ],
        "metallicFactor": 0,
        "roughnessFactor": 0.78451116258024689
      }
    },
    {
      "doubleSided": true,
      "emissiveFactor": [
        0,
        0,
        0
      ],
      "name": "Steel",
      "pbrMetallicRoughness": {
        "baseColorFactor": [
          0.80000000000000004,
          0.80000000000000004,
          0.80000000000000004,
          1
        ],
        "metallicFactor": 0,
        "roughnessFactor": 0.78451116258024689
      }
    }
  ],
  "meshes": [
    {
      "primitives": [
        {
          "attributes": {
            "NORMAL": 1,
            "POSITION": 0,
            "TEXCOORD_0": 2
          },
          "indices": 3,
          "material": 1,
          "mode": 4
        }
      ]
    },
    {
      "primitives": [
        {
          "attributes": {
            "NORMAL": 5,
            "POSITION": 4,
            "TEXCOORD_0": 6
          },
          "indices": 7,
          "material": 2,
          "mode": 4
        }
      ]
    },
    {
      "primitives": [
        {
          "attributes": {
            "NORMAL": 9,
            "POSITION": 8,
            "TEXCOORD_0": 10
          },
          "indices": 11,
          "material": 3,
          "mode": 4
        }
      ]
    },
    {
      "primitives": [
        {
          "attributes": {
            "NORMAL": 13,
            "POSITION": 12,
            "TEXCOORD_0": 14
          },
          "indices": 15,
          "material": 4,
          "mode": 4
        }
      ]
    },
    {
      "primitives": [
        {
          "attributes": {
            "NORMAL": 17,
            "POSITION": 16,
            "TEXCOORD_0": 18
          },
          "indices": 19,
          "material": 6,
          "mode": 4
        }
      ]
    },
    {
      "primitives": [
        {
          "attributes": {
            "NORMAL": 21,
            "POSITION": 20,
            "TEXCOORD_0": 22
          },
          "indices": 23,
          "material": 7,
          "mode": 4
        }
      ]
    },
    {
      "primitives": [
        {
          "attributes": {
            "NORMAL": 25,
            "POSITION": 24,
            "TEXCOORD_0": 26
          },
          "indices": 27,
          "material": 8,
          "mode": 4
        }
      ]
    },
    {
      "primitives": [
        {
          "attributes": {
            "NORMAL": 29,
            "POSITION": 28,
            "TEXCOORD_0": 30
          },
          "indices": 31,
          "material": 9,
          "mode": 4
        }
      ]
    },
    {
      "primitives": [
        {
          "attributes": {
            "NORMAL": 33,
            "POSITION": 32,
            "TEXCOORD_0": 34
          },
          "indices": 35,
          "material": 0,
          "mode": 4
        }
      ]
    },
    {
      "primitives": [
        {
          "attributes": {
            "NORMAL": 37,
            "POSITION": 36,
            "TEXCOORD_0": 38
          },
          "indices": 39,
          "material": 0,
          "mode": 4
        }
      ]
    },
    {
      "primitives": [
        {
          "attributes": {
            "NORMAL": 41,
            "POSITION": 40,
            "TEXCOORD_0": 42
          },
          "indices": 43,
          "material": 5,
          "mode": 4
        }
      ]
    }
  ],
  "nodes": [
    {
      "children": [
        1
      ],
      "name": "RootNode (gltf orientation matrix)",
      "rotation": [
        -0.70710678118654746,
        -0,
        -0,
        0.70710678118654757
      ]
    },
    {
      "children": [
        2
      ],
      "matrix": [
        0.026315789669752121,
        0,
        0,
        0,
        0,
        0.026315789669752121,
        0,
        0,
        0,
        0,
        0.026315789669752121,
        0,
        0,
        0,
        0,
        1
      ],
      "name": "RootNode (model correction matrix)"
    },
    {
      "children": [
        3,
        4,
        5,
        6,
        7,
        8,
        9,
        10,
        11,
        12,
        13
      ],
      "name": "model.obj.cleaner.materialmerger.gles"
    },
    {
      "mesh": 0,
      "name": ""
    },
    {
      "mesh": 1,
      "name": ""
    },
    {
      "mesh": 2,
      "name": ""
    },
    {
      "mesh": 3,
      "name": ""
    },
    {
      "mesh": 4,
      "name": ""
    },
    {
      "mesh": 5,
      "name": ""
    },
    {
      "mesh": 6,
      "name": ""
    },
    {
      "mesh": 7,
      "name": ""
    },
    {
      "mesh": 8,
      "name": ""
    },
    {
      "mesh": 9,
      "name": ""
    },
    {
      "mesh": 10,
      "name": ""
    }
  ],
  "scene": 0,
  "scenes": [
    {
      "name": "OSG_Scene",
      "nodes": [
        0
      ]
    }
  ]
}

